PathFileType	4	(X/Y/Z)	s07c0302.trc
DataRate	CameraRate	NumFrames	NumMarkers	Units	OrigDataRate	OrigDataStartFrame	OrigNumFrames
200	200	4	48	mm	200	750	2000
Frame#	Time	racr			lacr			c7			jug			rlel			rdr			llel			ldr			s2			lic			ric			lasi			rasi			rpsi			lpsi			rgt			lgt			rth1			rth2			rth3			rth4			rlfc			rmfc			rsh1			rsh2			rsh3			rsh4			rlmal			rcal			rtoe			rmt5			lth1			lth2			lth4			lth3			llfc			lmfc			lsh1			lsh2			lsh3			lsh4			llmal			lcal			ltoe			lmt5			SBIKE			LBIKE			RBIKE			
		X1	Y1	Z1	X2	Y2	Z2	X3	Y3	Z3	X4	Y4	Z4	X5	Y5	Z5	X6	Y6	Z6	X7	Y7	Z7	X8	Y8	Z8	X9	Y9	Z9	X10	Y10	Z10	X11	Y11	Z11	X12	Y12	Z12	X13	Y13	Z13	X14	Y14	Z14	X15	Y15	Z15	X16	Y16	Z16	X17	Y17	Z17	X18	Y18	Z18	X19	Y19	Z19	X20	Y20	Z20	X21	Y21	Z21	X22	Y22	Z22	X23	Y23	Z23	X24	Y24	Z24	X25	Y25	Z25	X26	Y26	Z26	X27	Y27	Z27	X28	Y28	Z28	X29	Y29	Z29	X30	Y30	Z30	X31	Y31	Z31	X32	Y32	Z32	X33	Y33	Z33	X34	Y34	Z34	X35	Y35	Z35	X36	Y36	Z36	X37	Y37	Z37	X38	Y38	Z38	X39	Y39	Z39	X40	Y40	Z40	X41	Y41	Z41	X42	Y42	Z42	X43	Y43	Z43	X44	Y44	Z44	X45	Y45	Z45	X46	Y46	Z46	X47	Y47	Z47	X48	Y48	Z48	
750	3.7500	763.445542	1376.152977	-39.526604	786.112692	1399.271200	-346.157182	774.352988	1435.364341	-191.681604	697.558457	1302.196385	-213.233591	526.032358	1108.768115	30.427194	718.767825	922.259158	-68.687391	597.400600	1151.688159	-517.948694	723.719620	906.449423	-422.419221	181.585375	1326.090599	-314.865397	369.667351	1343.068058	-424.616344	321.182380	1323.409790	-136.737452	374.575043	1258.571356	-400.911233	336.428144	1275.774854	-155.293447	207.277359	1359.168566	-258.828111	238.848556	1365.275363	-363.093296	243.668075	1218.236409	-109.108951	284.052736	1194.805900	-469.018753	340.387632	1087.977413	-88.527654	401.536000	1024.463981	-90.079172	424.392916	942.681650	-85.023661	432.182483	1041.728561	-102.320174	483.164737	815.548617	-107.287513	478.807972	797.763575	-211.251890	405.836253	694.552030	-82.013352	380.661963	610.971152	-97.762983	317.259104	550.207301	-94.735417	394.669421	605.398206	-136.548589	239.216992	432.465295	-91.342457	166.972693	396.723326	-117.185845	456.304374	354.737282	-125.090640	375.829286	326.842340	-55.259752	319.151742	1074.685803	-457.295661	365.382627	1001.445264	-442.065649	396.096709	1012.743554	-427.891628	369.360341	912.846944	-433.865204	382.555545	737.127406	-401.928729	363.315808	728.223722	-305.420406	263.989074	641.510054	-420.515457	213.712747	573.824870	-401.476891	132.566400	534.987657	-407.655735	218.258403	574.976583	-360.036102	21.778781	451.067520	-405.119670	-52.912197	474.990527	-365.859438	116.779224	239.723435	-359.631644	47.194337	284.283637	-419.703102	-261.595081	967.282161	-236.392084	-83.177619	79.578055	-437.025095	-83.149517	79.172252	-39.392547	
751	3.7550	764.130439	1373.371241	-39.801531	785.382561	1400.009952	-346.609369	774.268214	1434.093780	-191.549461	698.711401	1300.545893	-214.144621	525.145765	1106.994468	30.143028	718.527713	921.718201	-69.037939	597.448996	1151.818205	-517.506728	723.597868	906.218150	-422.826847	180.778272	1324.864914	-313.949837	368.738652	1342.345139	-423.717553	321.157518	1319.867024	-136.166350	373.372184	1257.894331	-400.813580	336.034874	1272.878263	-154.416306	206.448580	1357.284396	-257.441070	237.869589	1364.321090	-361.722312	242.914215	1214.684161	-108.959068	283.456266	1194.666645	-469.391255	337.624224	1082.632353	-89.537507	397.604369	1017.915083	-91.893927	419.092717	935.597824	-87.659389	428.456002	1034.838177	-103.984236	475.833106	808.405994	-110.181730	470.173128	790.677412	-214.133374	400.488721	686.554243	-83.281434	376.629115	602.365422	-98.290108	314.432076	540.557931	-94.443134	390.617266	596.774192	-137.072973	238.740071	420.851899	-89.946924	167.162389	383.315623	-116.559146	456.353913	344.495641	-125.322376	376.257204	315.546599	-55.312438	319.928399	1075.238362	-457.501212	367.473566	1002.502436	-442.580431	398.160968	1014.316861	-428.929527	373.062368	914.037911	-434.366736	389.589576	738.273957	-401.571697	369.966428	729.713162	-304.607418	268.795308	645.723644	-420.081007	216.613469	579.305481	-400.986881	134.584578	543.050457	-407.568706	221.460048	580.243201	-359.671677	21.353516	461.651137	-405.135427	-53.383048	485.837025	-365.781053	115.889509	250.274207	-359.709181	46.427460	294.925103	-419.698228	-261.760225	967.158358	-236.782230	-83.197825	79.457880	-437.033440	-83.182342	79.143775	-39.429716	
752	3.7600	764.740625	1371.094216	-40.131675	784.697550	1401.079849	-346.927067	774.192411	1433.184092	-191.438939	699.957659	1299.279441	-215.042420	524.632163	1105.545315	29.962141	718.326235	921.252682	-69.476135	597.685514	1152.076593	-516.947348	723.645637	906.047467	-423.248831	180.015017	1323.245351	-313.004895	367.699409	1341.350597	-422.720411	321.294265	1316.198413	-135.444078	372.137450	1256.923838	-400.491808	335.874755	1269.776738	-153.536822	206.459578	1354.536029	-256.698355	236.835987	1363.049569	-360.425143	242.355408	1210.974409	-108.649982	282.576904	1194.113896	-469.505284	335.087798	1077.160894	-90.528105	393.912892	1011.399397	-93.882932	413.862022	928.658739	-90.292402	424.929359	1027.923463	-105.827249	468.629914	801.149095	-113.065337	460.991092	783.809369	-216.879224	394.825027	678.363789	-84.603638	370.618480	593.697088	-100.310256	311.265160	530.881055	-94.730430	386.567878	587.872993	-137.418540	237.684547	409.693908	-89.024583	166.836548	371.393823	-115.485090	456.222173	334.249640	-125.497358	376.157089	304.388551	-55.452968	320.308562	1075.197422	-458.043847	369.083085	1003.154567	-443.215188	399.798228	1015.504248	-430.004417	376.323503	914.738830	-435.005620	396.545626	739.311971	-401.491454	377.444848	730.642784	-303.794793	273.413890	649.609266	-419.730590	219.557103	584.620539	-400.674726	136.543136	550.695395	-407.226786	224.584606	585.314084	-359.500670	21.239273	472.119884	-404.941814	-53.365491	496.598435	-365.956610	115.784814	260.995791	-359.887927	46.250701	305.643043	-419.784332	-261.877789	967.055364	-237.010251	-83.214136	79.385571	-437.042531	-83.165224	79.139748	-39.447532	
753	3.7650	765.258977	1369.095369	-40.588902	783.929531	1402.424939	-347.290214	774.127054	1432.676199	-191.422147	701.540028	1298.233549	-216.067527	524.178243	1104.315969	29.839504	718.141108	920.641844	-69.870046	598.037332	1152.392435	-516.367221	723.690284	905.896312	-423.433480	179.138786	1321.129449	-311.234499	366.538664	1340.074204	-421.909967	321.399037	1312.271147	-134.345262	370.750090	1255.734299	-400.237901	335.945318	1266.632717	-152.533758	205.486226	1352.426528	-254.309500	235.774487	1361.390698	-358.879870	242.145591	1207.166039	-108.201762	281.438023	1193.156860	-469.355739	332.959557	1071.675773	-91.842996	390.444616	1004.888045	-95.884310	408.860782	921.816839	-92.648439	421.697596	1020.886070	-107.826488	461.619993	793.687263	-116.102931	451.390567	776.282505	-218.443738	389.262541	669.884366	-86.260210	368.031431	584.980379	-100.557688	308.017059	521.067226	-95.241912	381.896240	579.467947	-138.990070	236.458482	398.844310	-88.713720	165.879592	359.864571	-114.961345	455.172287	323.002712	-126.120751	375.713183	293.577348	-55.745285	319.961208	1074.222770	-457.235124	370.346777	1003.405035	-443.880251	401.264347	1016.691284	-431.778172	379.240097	915.184085	-435.805859	402.866701	739.964606	-401.205201	383.435415	731.647325	-303.854837	278.050289	653.516533	-419.732652	222.627083	589.853395	-400.549001	138.355808	557.995309	-406.515100	227.945149	590.193095	-359.571269	21.432721	482.849675	-404.920629	-52.998514	507.445236	-366.300686	115.875841	270.858859	-358.530613	46.693188	316.729368	-420.107391	-261.920081	967.044854	-237.105261	-83.230323	79.378675	-437.055772	-83.196397	79.163841	-39.430395	
